<svg xmlns="http://www.w3.org/2000/svg" viewBox="0 0 59 59"><path d="M45.07 59a1 1 0 110-2H47c.553 0 1.035.447 1.035.999 0 .553-.412 1-.965 1v-1l-.029 1L45.07 59zm-4 0h-2a1 1 0 110-2h2a1 1 0 110 2zm-6 0h-2a1 1 0 110-2h2a1 1 0 110 2zm-6 0h-2a1 1 0 110-2h2a1 1 0 110 2zm-6 0h-2a1 1 0 110-2h2a1 1 0 110 2zm-6 0h-2a1 1 0 110-2h2a1 1 0 110 2zm33.467-1.718a1 1 0 01-.785-1.618 3.47 3.47 0 00.663-1.392 1 1 0 111.951.439 5.504 5.504 0 01-1.042 2.188.995.995 0 01-.787.383zm.001-5.563a.997.997 0 01-.787-.382 3.531 3.531 0 00-1.197-.974 1 1 0 01.891-1.791c.727.361 1.376.89 1.879 1.528a1 1 0 01-.786 1.619zM45.071 50h-2a1 1 0 110-2h2a1 1 0 110 2zm-6 0h-2a1 1 0 110-2h2a1 1 0 110 2zm-5.942-.406a.99.99 0 01-.415-.091 5.556 5.556 0 01-1.927-1.467 1 1 0 011.531-1.287 3.55 3.55 0 001.228.936.999.999 0 01-.417 1.909zM30.58 44.65a1.001 1.001 0 01-.983-1.189 5.453 5.453 0 01.973-2.222 1.001 1.001 0 011.611 1.185 3.447 3.447 0 00-.619 1.413c-.093.48-.512.813-.982.813zm4.204-3.645a1 1 0 01-.04-1.999c.085-.004.17-.006.256-.006h1.785a1 1 0 110 2l-1.959.004-.042.001zM53 41h-.215a1 1 0 110-2H53c.469 0 .923-.091 1.352-.271a1 1 0 11.774 1.844A5.469 5.469 0 0153 41zm-4.215 0h-2a1 1 0 110-2h2a1 1 0 110 2zm-6 0h-2a1 1 0 110-2h2a1 1 0 110 2zm14.533-3.23a1 1 0 01-.96-1.281 3.502 3.502 0 00.1-1.54 1 1 0 111.975-.317c.047.293.069.588.067.876 0 .519-.074 1.04-.222 1.543a1.001 1.001 0 01-.96.719zm-2.068-5.166a.993.993 0 01-.501-.135 3.438 3.438 0 00-1.47-.458 1 1 0 11.156-1.994 5.42 5.42 0 012.317.722 1 1 0 01-.502 1.865zM49.357 32h-2a1 1 0 110-2h2a1 1 0 110 2zm-6 0h-2a1 1 0 110-2h2a1 1 0 110 2zm-6 0h-2a1 1 0 110-2h2a1 1 0 110 2zm-6 0H31a5.521 5.521 0 01-1.963-.361 1.001 1.001 0 01.713-1.869c.398.152.819.229 1.252.23h.355a1 1 0 110 2zm-4.633-3.095a1 1 0 01-.95-.688 5.475 5.475 0 01-.229-2.412.995.995 0 011.117-.867.998.998 0 01.867 1.117 3.494 3.494 0 00.146 1.537 1.002 1.002 0 01-.951 1.313zm1.904-5.229a1 1 0 01-.531-1.849 5.423 5.423 0 012.294-.794 1.001 1.001 0 01.219 1.989 3.451 3.451 0 00-1.454.503 1 1 0 01-.528.151zM42.5 23h-2a1 1 0 110-2h2a1 1 0 110 2zm-6 0h-2a1 1 0 110-2h2a1 1 0 110 2z" fill="#ed8a19"/><path d="M53.47 2.669c-3.157-3.559-8.276-3.559-11.433 0s-3.157 9.328 0 12.887L47.753 22l5.716-6.444c3.158-3.558 3.158-9.328.001-12.887zM48 13a4.5 4.5 0 110-9 4.5 4.5 0 010 9z" fill="#26b99a"/><path d="M19.278 28.64c-4.296-4.853-11.261-4.853-15.556 0-4.296 4.853-4.296 12.721 0 17.573L11.5 55l7.778-8.787c4.296-4.853 4.296-12.721 0-17.573zM11.5 41a5 5 0 11.001-10.001A5 5 0 0111.5 41z" fill="#3083c9"/></svg>