<svg xmlns="http://www.w3.org/2000/svg" viewBox="0 0 512 512"><path d="M273.133 256c0-36.414 91.586-66.207 97.103-132.414 3.133-37.586-8.828-61.793-8.828-61.793H150.593s-11.96 24.207-8.828 61.793c5.517 66.207 97.103 96 97.103 132.414s-91.586 66.207-97.103 132.414c-3.133 37.586 8.828 61.793 8.828 61.793h210.816s11.96-24.207 8.828-61.793c-5.518-66.207-97.104-96-97.104-132.414z" fill="#e4eaf6"/><circle cx="276.922" cy="155.63" r="32.044" fill="#eff2f8"/><path d="M212.084 388.414c2.334-66.207 41.082-96 41.082-132.414s-38.749-66.207-41.082-132.414c-1.325-37.586 3.735-61.793 3.735-61.793h-65.226s-11.96 24.207-8.828 61.793c5.517 66.207 97.103 96 97.103 132.414s-91.586 66.207-97.103 132.414c-3.133 37.586 8.828 61.793 8.828 61.793h65.226c.001 0-5.06-24.208-3.735-61.793z" fill="#d7deed"/><path d="M398.833 44.138H113.168a8.83 8.83 0 01-8.657-7.096l-5.297-26.483C98.124 5.097 102.301 0 107.871 0h296.257c5.57 0 9.749 5.097 8.657 10.559l-5.297 26.483a8.827 8.827 0 01-8.655 7.096z" fill="#d2aa82"/><path d="M363.768 61.793H148.235a11.313 11.313 0 01-10.119-6.254l-5.702-11.401h247.172l-5.7 11.401a11.313 11.313 0 01-10.118 6.254z" fill="#be876b"/><path d="M352.642 389.88c-.295-3.532-.954-6.955-1.881-10.294H335.45c-43.879 0-79.448-35.57-79.448-79.448 0 43.879-35.57 79.448-79.448 79.448h-15.311c-.926 3.339-1.587 6.762-1.881 10.294-1.557 18.682 1.167 33.565 3.682 42.671h185.922c2.504-9.08 5.235-23.972 3.676-42.671zM169.148 150.069c10.557 17.137 27.846 31.747 43.763 45.153 20.364 17.152 39.703 33.439 43.091 54.289 3.388-20.85 22.727-37.137 43.091-54.289 15.917-13.406 33.206-28.018 43.763-45.153H169.148z" fill="#e1be91"/><path d="M215.215 150.069h-46.067c10.557 17.137 27.846 31.747 43.763 45.153 12.984 10.936 25.505 21.533 33.788 33.173-8.958-21.427-24.738-44.521-31.484-78.326zm-3.131 238.345c.226-6.397.875-12.36 1.714-18.115a79.068 79.068 0 01-37.246 9.288h-15.311c-.926 3.339-1.587 6.762-1.881 10.294-1.557 18.682 1.167 33.565 3.682 42.671h50.332c-1.063-10.71-1.936-25.817-1.29-44.138z" fill="#d2aa82"/><path fill="#c89876" d="M114.759 44.138h17.655v423.724h-17.655z"/><circle cx="123.587" cy="256" r="17.655" fill="#be876b"/><path fill="#c89876" d="M379.587 44.138h17.655v423.724h-17.655z"/><circle cx="388.414" cy="256" r="17.655" fill="#be876b"/><path d="M203.554 37.042l-5.297-26.483C197.164 5.097 201.342 0 206.913 0h-99.041c-5.57 0-9.748 5.097-8.657 10.559l5.297 26.483a8.828 8.828 0 008.658 7.096h99.04a8.827 8.827 0 01-8.656-7.096z" fill="#c89876"/><path d="M398.833 467.862H113.168a8.83 8.83 0 00-8.657 7.096l-5.297 26.483C98.122 506.903 102.3 512 107.871 512h296.257c5.57 0 9.749-5.097 8.657-10.559l-5.297-26.483a8.827 8.827 0 00-8.655-7.096z" fill="#d2aa82"/><path d="M148.233 450.207h215.533c4.285 0 8.203 2.421 10.119 6.254l5.702 11.401H132.414l5.7-11.401a11.315 11.315 0 0110.119-6.254z" fill="#be876b"/><path d="M203.554 474.958l-5.297 26.483c-1.092 5.462 3.085 10.559 8.657 10.559h-99.042c-5.57 0-9.748-5.097-8.657-10.559l5.297-26.483a8.827 8.827 0 018.657-7.096h99.04a8.827 8.827 0 00-8.655 7.096z" fill="#c89876"/><circle cx="328.994" cy="103.559" r="20.028" fill="#fff"/><path d="M270.76 187.076c17.366 3.402 34.201-7.919 37.602-25.284.782-3.994.704-7.942.034-11.723H245.42c-3.028 17.152 8.174 33.645 25.34 37.007z" fill="#ead2b2"/></svg>