<?xml version="1.0" encoding="iso-8859-1"?>
<!-- Generator: Adobe Illustrator 19.0.0, SVG Export Plug-In . SVG Version: 6.00 Build 0)  -->
<svg version="1.1" id="Layer_1" xmlns="http://www.w3.org/2000/svg" xmlns:xlink="http://www.w3.org/1999/xlink" x="0px" y="0px"
	 viewBox="0 0 512 512" style="enable-background:new 0 0 512 512;" xml:space="preserve">
<path style="fill:#E4EAF6;" d="M273.133,256c0-36.414,91.586-66.207,97.103-132.414c3.133-37.586-8.828-61.793-8.828-61.793H150.593
	c0,0-11.96,24.207-8.828,61.793c5.517,66.207,97.103,96,97.103,132.414s-91.586,66.207-97.103,132.414
	c-3.133,37.586,8.828,61.793,8.828,61.793h210.816c0,0,11.96-24.207,8.828-61.793C364.719,322.207,273.133,292.414,273.133,256z"/>
<circle style="fill:#EFF2F8;" cx="276.922" cy="155.63" r="32.044"/>
<path style="fill:#D7DEED;" d="M212.084,388.414c2.334-66.207,41.082-96,41.082-132.414s-38.749-66.207-41.082-132.414
	c-1.325-37.586,3.735-61.793,3.735-61.793h-65.226c0,0-11.96,24.207-8.828,61.793c5.517,66.207,97.103,96,97.103,132.414
	s-91.586,66.207-97.103,132.414c-3.133,37.586,8.828,61.793,8.828,61.793h65.226C215.82,450.207,210.759,425.999,212.084,388.414z"
	/>
<path style="fill:#D2AA82;" d="M398.833,44.138H113.168c-4.207,0-7.831-2.97-8.657-7.096l-5.297-26.483
	C98.124,5.097,102.301,0,107.871,0h296.257c5.57,0,9.749,5.097,8.657,10.559l-5.297,26.483
	C406.663,41.167,403.041,44.138,398.833,44.138z"/>
<path style="fill:#BE876B;" d="M363.768,61.793H148.235c-4.285,0-8.203-2.421-10.119-6.254l-5.702-11.401h247.172l-5.7,11.401
	C371.97,59.372,368.052,61.793,363.768,61.793z"/>
<g>
	<path style="fill:#E1BE91;" d="M352.642,389.88c-0.295-3.532-0.954-6.955-1.881-10.294h-15.311
		c-43.879,0-79.448-35.57-79.448-79.448c0,43.879-35.57,79.448-79.448,79.448h-15.311c-0.926,3.339-1.587,6.762-1.881,10.294
		c-1.557,18.682,1.167,33.565,3.682,42.671h185.922C351.47,423.471,354.201,408.579,352.642,389.88z"/>
	<path style="fill:#E1BE91;" d="M169.148,150.069c10.557,17.137,27.846,31.747,43.763,45.153
		c20.364,17.152,39.703,33.439,43.091,54.289c3.388-20.85,22.727-37.137,43.091-54.289c15.917-13.406,33.206-28.018,43.763-45.153
		H169.148z"/>
</g>
<g>
	<path style="fill:#D2AA82;" d="M215.215,150.069h-46.067c10.557,17.137,27.846,31.747,43.763,45.153
		c12.984,10.936,25.505,21.533,33.788,33.173C237.741,206.968,221.961,183.874,215.215,150.069z"/>
	<path style="fill:#D2AA82;" d="M212.084,388.414c0.226-6.397,0.875-12.36,1.714-18.115c-11.113,5.911-23.78,9.288-37.246,9.288
		h-15.311c-0.926,3.339-1.587,6.762-1.881,10.294c-1.557,18.682,1.167,33.565,3.682,42.671h50.332
		C212.311,421.842,211.438,406.735,212.084,388.414z"/>
</g>
<rect x="114.759" y="44.138" style="fill:#C89876;" width="17.655" height="423.724"/>
<circle style="fill:#BE876B;" cx="123.587" cy="256" r="17.655"/>
<rect x="379.587" y="44.138" style="fill:#C89876;" width="17.655" height="423.724"/>
<circle style="fill:#BE876B;" cx="388.414" cy="256" r="17.655"/>
<path style="fill:#C89876;" d="M203.554,37.042l-5.297-26.483C197.164,5.097,201.342,0,206.913,0h-99.041
	c-5.57,0-9.748,5.097-8.657,10.559l5.297,26.483c0.825,4.126,4.449,7.096,8.658,7.096h99.04
	C208.002,44.138,204.378,41.167,203.554,37.042z"/>
<path style="fill:#D2AA82;" d="M398.833,467.862H113.168c-4.207,0-7.831,2.97-8.657,7.096l-5.297,26.483
	C98.122,506.903,102.3,512,107.871,512h296.257c5.57,0,9.749-5.097,8.657-10.559l-5.297-26.483
	C406.663,470.833,403.041,467.862,398.833,467.862z"/>
<path style="fill:#BE876B;" d="M148.233,450.207h215.533c4.285,0,8.203,2.421,10.119,6.254l5.702,11.401H132.414l5.7-11.401
	C140.031,452.628,143.949,450.207,148.233,450.207z"/>
<path style="fill:#C89876;" d="M203.554,474.958l-5.297,26.483c-1.092,5.462,3.085,10.559,8.657,10.559h-99.042
	c-5.57,0-9.748-5.097-8.657-10.559l5.297-26.483c0.825-4.126,4.448-7.096,8.657-7.096h99.04
	C208.002,467.862,204.378,470.833,203.554,474.958z"/>
<circle style="fill:#FFFFFF;" cx="328.994" cy="103.559" r="20.028"/>
<path style="fill:#EAD2B2;" d="M270.76,187.076c17.366,3.402,34.201-7.919,37.602-25.284c0.782-3.994,0.704-7.942,0.034-11.723
	h-62.976C242.392,167.221,253.594,183.714,270.76,187.076z"/>
<g>
</g>
<g>
</g>
<g>
</g>
<g>
</g>
<g>
</g>
<g>
</g>
<g>
</g>
<g>
</g>
<g>
</g>
<g>
</g>
<g>
</g>
<g>
</g>
<g>
</g>
<g>
</g>
<g>
</g>
</svg>
